<svg width="47" height="36" viewBox="0 0 47 36" fill="none" xmlns="http://www.w3.org/2000/svg">
<path d="M46.5 24C46.5 27.0278 44.0853 29.8975 39.8896 32.04C35.7209 34.1687 29.9271 35.5 23.5 35.5C17.0729 35.5 11.2791 34.1687 7.11038 32.04C2.91469 29.8975 0.5 27.0278 0.5 24C0.5 20.9722 2.91469 18.1025 7.11038 15.96C11.2791 13.8313 17.0729 12.5 23.5 12.5C29.9271 12.5 35.7209 13.8313 39.8896 15.96C44.0853 18.1025 46.5 20.9722 46.5 24Z" fill="#F1674B" stroke="#DFA2A5"/>
<path d="M46.5 19.5C46.5 22.9724 44.0457 26.2124 39.8679 28.6124C35.7039 31.0045 29.918 32.5 23.5 32.5C17.082 32.5 11.2961 31.0045 7.13205 28.6124C2.95434 26.2124 0.5 22.9724 0.5 19.5C0.5 16.0276 2.95434 12.7876 7.13205 10.3876C11.2961 7.99549 17.082 6.5 23.5 6.5C29.918 6.5 35.7039 7.99549 39.8679 10.3876C44.0457 12.7876 46.5 16.0276 46.5 19.5Z" fill="#F1674B" stroke="#F1674B"/>
<path d="M0 12H1V25.5L0 24V12Z" fill="#DFA2A5"/>
<path d="M46 12H47V24L46 25.8143V12Z" fill="#DFA2A5"/>
<path d="M1 15H1.5L2 20H1V15Z" fill="#F1674B"/>
<path d="M46 14H45.5L45 19H46V14Z" fill="#F1674B"/>
<path d="M46.5 12C46.5 15.0278 44.0853 17.8975 39.8896 20.04C35.7209 22.1687 29.9271 23.5 23.5 23.5C17.0729 23.5 11.2791 22.1687 7.11038 20.04C2.91469 17.8975 0.5 15.0278 0.5 12C0.5 8.97218 2.91469 6.1025 7.11038 3.96002C11.2791 1.83133 17.0729 0.5 23.5 0.5C29.9271 0.5 35.7209 1.83133 39.8896 3.96002C44.0853 6.1025 46.5 8.97218 46.5 12Z" fill="#8681BC" stroke="#D3D0EE"/>
<path d="M46.5 12C46.5 15.0278 44.0853 17.8975 39.8896 20.04C35.7209 22.1687 29.9271 23.5 23.5 23.5C17.0729 23.5 11.2791 22.1687 7.11038 20.04C2.91469 17.8975 0.5 15.0278 0.5 12C0.5 8.97218 2.91469 6.1025 7.11038 3.96002C11.2791 1.83133 17.0729 0.5 23.5 0.5C29.9271 0.5 35.7209 1.83133 39.8896 3.96002C44.0853 6.1025 46.5 8.97218 46.5 12Z" fill="#EE1A24" stroke="#DFA2A5"/>
</svg>
